<svg width="19" height="5" viewBox="0 0 19 5" fill="none" xmlns="http://www.w3.org/2000/svg">
<path d="M5 2.5C5 3.88071 3.88071 5 2.5 5C1.11929 5 0 3.88071 0 2.5C0 1.11929 1.11929 0 2.5 0C3.88071 0 5 1.11929 5 2.5Z" fill="#A5A5A5"/>
<path d="M12 2.5C12 3.88071 10.8807 5 9.5 5C8.11929 5 7 3.88071 7 2.5C7 1.11929 8.11929 0 9.5 0C10.8807 0 12 1.11929 12 2.5Z" fill="#A5A5A5"/>
<path d="M19 2.5C19 3.88071 17.8807 5 16.5 5C15.1193 5 14 3.88071 14 2.5C14 1.11929 15.1193 0 16.5 0C17.8807 0 19 1.11929 19 2.5Z" fill="#A5A5A5"/>
</svg>
